<svg width="32" height="32" viewBox="0 0 32 32" fill="none" xmlns="http://www.w3.org/2000/svg">
<g clip-path="url(#clip0_48_4)">
<path d="M31.6876 13.1977C31.5988 13.1234 30.7969 12.514 29.0757 12.514C28.623 12.5166 28.1713 12.5563 27.7251 12.6327C27.3988 10.3577 25.5138 9.25773 25.4394 9.19523L24.9794 8.92773L24.6826 9.35898C24.3082 9.94445 24.0325 10.5874 23.8663 11.2621C23.5538 12.5559 23.7476 13.7746 24.4007 14.8152C23.6138 15.2615 22.3382 15.3652 22.0707 15.3777H0.996306C0.864978 15.3776 0.734932 15.4035 0.613655 15.4539C0.492379 15.5043 0.38227 15.5782 0.289669 15.6713C0.197068 15.7645 0.123806 15.875 0.074101 15.9965C0.0243962 16.1181 -0.00076857 16.2483 5.58613e-05 16.3796C-0.0282541 18.2298 0.284244 20.0694 0.921931 21.8065C1.64943 23.7096 2.73256 25.1252 4.12506 25.984C5.70131 26.9502 8.26881 27.5002 11.1626 27.5002C12.4717 27.5003 13.7782 27.3808 15.0657 27.1434C16.8606 26.8179 18.5871 26.1896 20.1713 25.2852C21.4755 24.5275 22.6484 23.5636 23.6444 22.4309C25.3213 20.5427 26.3157 18.4309 27.0432 16.5559H27.3401C29.1657 16.5559 30.2938 15.8271 30.9169 15.2027C31.3305 14.8107 31.6546 14.334 31.8669 13.8052L32.0007 13.419L31.6876 13.1977Z" fill="black"/>
<path d="M2.95557 14.7732H5.77494C5.84125 14.7732 5.90483 14.7468 5.95172 14.6999C5.9986 14.6531 6.02494 14.5895 6.02494 14.5232V11.9932C6.02494 11.9269 5.9986 11.8633 5.95172 11.8164C5.90483 11.7695 5.84125 11.7432 5.77494 11.7432H2.95557C2.88926 11.7432 2.82567 11.7695 2.77879 11.8164C2.73191 11.8633 2.70557 11.9269 2.70557 11.9932V14.5207C2.70804 14.5862 2.73517 14.6483 2.78153 14.6947C2.82789 14.7411 2.89005 14.7682 2.95557 14.7707" fill="black"/>
<path d="M6.84375 14.7732H9.66375C9.73005 14.7732 9.79364 14.7468 9.84053 14.6999C9.88741 14.6531 9.91375 14.5895 9.91375 14.5232V11.9932C9.91375 11.9269 9.88741 11.8633 9.84053 11.8164C9.79364 11.7695 9.73005 11.7432 9.66375 11.7432H6.84375C6.77745 11.7432 6.71386 11.7695 6.66697 11.8164C6.62009 11.8633 6.59375 11.9269 6.59375 11.9932V14.5207C6.59622 14.5862 6.62336 14.6483 6.66972 14.6947C6.71608 14.7411 6.77824 14.7682 6.84375 14.7707" fill="black"/>
<path d="M10.8063 14.7732H13.625C13.6913 14.7732 13.7549 14.7468 13.8018 14.6999C13.8487 14.6531 13.875 14.5895 13.875 14.5232V11.9932C13.875 11.9269 13.8487 11.8633 13.8018 11.8164C13.7549 11.7695 13.6913 11.7432 13.625 11.7432H10.8063C10.74 11.7432 10.6764 11.7695 10.6295 11.8164C10.5826 11.8633 10.5563 11.9269 10.5563 11.9932V14.5207C10.5552 14.5538 10.5609 14.5868 10.573 14.6177C10.5852 14.6485 10.6036 14.6765 10.627 14.7C10.6504 14.7234 10.6785 14.7418 10.7093 14.7539C10.7401 14.7661 10.7732 14.7718 10.8063 14.7707" fill="black"/>
<path d="M14.71 14.7732H17.53C17.5963 14.7732 17.6599 14.7468 17.7067 14.6999C17.7536 14.6531 17.78 14.5895 17.78 14.5232V11.9932C17.78 11.9269 17.7536 11.8633 17.7067 11.8164C17.6599 11.7695 17.5963 11.7432 17.53 11.7432H14.71C14.6437 11.7432 14.5801 11.7695 14.5332 11.8164C14.4863 11.8633 14.46 11.9269 14.46 11.9932V14.5207C14.46 14.587 14.4863 14.6506 14.5332 14.6974C14.5801 14.7443 14.6437 14.7707 14.71 14.7707" fill="black"/>
<path d="M6.84375 11.1609H9.66375C9.72926 11.1584 9.79142 11.1313 9.83778 11.0849C9.88414 11.0385 9.91127 10.9764 9.91375 10.9109V8.38086C9.91375 8.31456 9.88741 8.25097 9.84053 8.20408C9.79364 8.1572 9.73005 8.13086 9.66375 8.13086H6.84375C6.77745 8.13086 6.71386 8.1572 6.66697 8.20408C6.62009 8.25097 6.59375 8.31456 6.59375 8.38086V10.9084C6.59865 10.973 6.62656 11.0338 6.67242 11.0797C6.71829 11.1256 6.77907 11.1535 6.84375 11.1584" fill="black"/>
<path d="M10.8062 11.1609H13.6249C13.6904 11.1584 13.7526 11.1313 13.7989 11.0849C13.8453 11.0385 13.8724 10.9764 13.8749 10.9109V8.38086C13.8749 8.31456 13.8486 8.25097 13.8017 8.20408C13.7548 8.1572 13.6912 8.13086 13.6249 8.13086H10.8062C10.7398 8.13086 10.6763 8.1572 10.6294 8.20408C10.5825 8.25097 10.5562 8.31456 10.5562 8.38086V10.9084C10.5562 10.9747 10.5825 11.0383 10.6294 11.0851C10.6763 11.132 10.7398 11.1584 10.8062 11.1584" fill="black"/>
<path d="M14.71 11.1609H17.53C17.5955 11.1584 17.6576 11.1313 17.704 11.0849C17.7504 11.0385 17.7775 10.9764 17.78 10.9109V8.38086C17.7775 8.31535 17.7504 8.25318 17.704 8.20683C17.6576 8.16047 17.5955 8.13333 17.53 8.13086H14.71C14.6437 8.13086 14.5801 8.1572 14.5332 8.20408C14.4863 8.25097 14.46 8.31456 14.46 8.38086V10.9084C14.4624 10.9739 14.4896 11.036 14.5359 11.0824C14.5823 11.1288 14.6444 11.1559 14.71 11.1584" fill="black"/>
<path d="M14.71 7.53312H17.53C17.5963 7.53312 17.6599 7.50679 17.7067 7.4599C17.7536 7.41302 17.78 7.34943 17.78 7.28312V4.75C17.7775 4.68449 17.7504 4.62233 17.704 4.57597C17.6576 4.52961 17.5955 4.50247 17.53 4.5H14.71C14.6437 4.5 14.5801 4.52634 14.5332 4.57322C14.4863 4.62011 14.46 4.6837 14.46 4.75V7.2775C14.4626 7.34297 14.4898 7.40504 14.5361 7.45137C14.5824 7.4977 14.6445 7.52488 14.71 7.5275" fill="black"/>
<path d="M18.6426 14.7732H21.4626C21.5289 14.7732 21.5925 14.7468 21.6394 14.6999C21.6862 14.6531 21.7126 14.5895 21.7126 14.5232V11.9932C21.7126 11.9269 21.6862 11.8633 21.6394 11.8164C21.5925 11.7695 21.5289 11.7432 21.4626 11.7432H18.6426C18.5763 11.7432 18.5127 11.7695 18.4658 11.8164C18.4189 11.8633 18.3926 11.9269 18.3926 11.9932V14.5207C18.3951 14.5862 18.4222 14.6483 18.4685 14.6947C18.5149 14.7411 18.5771 14.7682 18.6426 14.7707" fill="black"/>
</g>
<defs>
<clipPath id="clip0_48_4">
<rect width="32" height="32" fill="white"/>
</clipPath>
</defs>
</svg>
