<svg width="32" height="32" viewBox="0 0 32 32" fill="none" xmlns="http://www.w3.org/2000/svg">
<path d="M10.6666 6.6665C10.256 6.6665 9.86834 6.85566 9.61566 7.17929C9.36298 7.5029 9.2735 7.92489 9.37307 8.32322L10.7064 13.6565C10.8548 14.2501 11.3881 14.6665 11.9999 14.6665H18.3999C18.5473 14.6665 18.6666 14.7858 18.6666 14.9332V18.0037C18.6666 18.0745 18.6385 18.1424 18.5885 18.1924L16.1885 20.5924C16.0843 20.6965 15.9155 20.6965 15.8114 20.5924L12.9427 17.7237C12.422 17.203 11.5778 17.203 11.0571 17.7237C10.5364 18.2444 10.5364 19.0886 11.0571 19.6093L15.0571 23.6093C15.5778 24.13 16.4221 24.13 16.9427 23.6093L20.9427 19.6093C21.1927 19.3593 21.3333 19.0201 21.3333 18.6665V13.3332C21.3333 12.5968 20.7363 11.9998 19.9999 11.9998H13.2492C13.1268 11.9998 13.0202 11.9166 12.9905 11.7979L12.4571 9.66452C12.4151 9.49621 12.5424 9.33317 12.7158 9.33317H21.3333C22.0697 9.33317 22.6666 8.73621 22.6666 7.99984C22.6666 7.26346 22.0697 6.6665 21.3333 6.6665H10.6666Z" fill="#0F0F0F"/>
<path fill-rule="evenodd" clip-rule="evenodd" d="M5.74146 1.3335C3.30728 1.3335 1.43742 3.48944 1.78168 5.89918L3.87369 20.5434C4.00901 21.4906 4.47938 22.3579 5.19948 22.988L13.3661 30.1338C14.8742 31.4534 17.126 31.4534 18.6341 30.1338L26.8008 22.988C27.5208 22.3579 27.9912 21.4906 28.1265 20.5434L30.2185 5.89918C30.5628 3.48944 28.6929 1.3335 26.2588 1.3335H5.74146ZM4.42153 5.52206C4.30678 4.71882 4.93006 4.00016 5.74146 4.00016H26.2588C27.0701 4.00016 27.6934 4.71882 27.5786 5.52206L25.4866 20.1662C25.4416 20.4819 25.2848 20.7711 25.0448 20.9811L16.8781 28.1268C16.3754 28.5667 15.6248 28.5667 15.1221 28.1268L6.95549 20.9811C6.71545 20.7711 6.55866 20.4819 6.51356 20.1662L4.42153 5.52206Z" fill="#0F0F0F"/>
</svg>
