<svg width="32" height="32" viewBox="0 0 32 32" fill="none" xmlns="http://www.w3.org/2000/svg">
<g clip-path="url(#clip0_46_213)">
<path d="M0 3.5C0 1.567 1.567 0 3.5 0H28.5C30.433 0 32 1.567 32 3.5V7.5C32 8.32842 31.3284 9 30.5 9C29.6716 9 29 8.32842 29 7.5V3.5C29 3.22386 28.7762 3 28.5 3H3.5C3.22386 3 3 3.22386 3 3.5V28.5C3 28.7762 3.22386 29 3.5 29H30.5C31.3284 29 32 29.6716 32 30.5C32 31.3284 31.3284 32 30.5 32H3.5C1.567 32 0 30.433 0 28.5V3.5ZM16.5 11.5C17.3284 11.5 18 12.1716 18 13V21C18 23.0096 17.448 24.5168 16.3103 25.4648C15.2245 26.3696 13.9077 26.5 13 26.5C12.1716 26.5 11.5 25.8284 11.5 25C11.5 24.1716 12.1716 23.5 13 23.5C13.6923 23.5 14.1255 23.3804 14.3897 23.1602C14.602 22.9832 15 22.4904 15 21V13C15 12.1716 15.6716 11.5 16.5 11.5ZM22.5514 13.1602C23.3888 12.1633 24.7014 11.5 26.5 11.5C28.1698 11.5 29.4296 12.0713 30.2788 12.9696C30.8478 13.5717 30.821 14.521 30.219 15.0901C29.617 15.6592 28.6676 15.6324 28.0986 15.0304C27.8788 14.798 27.4408 14.5 26.5 14.5C25.4986 14.5 25.0612 14.8367 24.8486 15.0898C24.5868 15.4013 24.5 15.792 24.5 16C24.5 16.208 24.5868 16.5987 24.8486 16.9102C25.0612 17.1633 25.4986 17.5 26.5 17.5C26.6514 17.5 26.7976 17.5224 26.9352 17.5641C28.2614 17.7529 29.2638 18.345 29.9486 19.1602C30.7368 20.0986 31 21.208 31 22C31 22.792 30.7368 23.9014 29.9486 24.8398C29.1112 25.8368 27.7986 26.5 26 26.5C24.3302 26.5 23.0704 25.9286 22.2212 25.0304C21.6522 24.4284 21.679 23.479 22.281 22.9098C22.883 22.3408 23.8324 22.3676 24.4014 22.9696C24.6212 23.202 25.0592 23.5 26 23.5C27.0014 23.5 27.4388 23.1632 27.6514 22.9102C27.9132 22.5986 28 22.208 28 22C28 21.792 27.9132 21.4014 27.6514 21.0898C27.4388 20.8368 27.0014 20.5 26 20.5C25.8486 20.5 25.7024 20.4776 25.5648 20.4358C24.2386 20.247 23.2362 19.655 22.5514 18.8398C21.7632 17.9013 21.5 16.792 21.5 16C21.5 15.208 21.7632 14.0987 22.5514 13.1602Z" fill="black"/>
</g>
<defs>
<clipPath id="clip0_46_213">
<rect width="32" height="32" fill="white"/>
</clipPath>
</defs>
</svg>
