<svg width="32" height="32" viewBox="0 0 32 32" fill="none" xmlns="http://www.w3.org/2000/svg">
<path d="M27.7287 25.3156C27.6374 25.2662 27.5506 25.2194 27.4787 25.1781C27.0743 24.9388 26.6662 24.5206 26.7381 24.0637C26.8893 23.0675 26.9187 22.5969 26.7074 22.2644C26.5937 22.0868 26.4255 21.9508 26.2281 21.8769V21.8731C26.3162 21.7131 26.3693 21.5194 26.4049 21.2406C26.4949 20.5531 26.0924 18.4906 25.5487 16.8219C25.0437 15.2794 23.7212 13.6969 22.7549 12.5369L22.5293 12.2656C21.0368 10.4575 21.0081 9.87875 20.8699 7.09875C20.8499 6.69438 20.8268 6.23625 20.7968 5.72375C20.6168 2.58938 18.9999 1 15.9999 1C14.4249 1 13.2112 1.44687 12.3924 2.32875C11.7368 3.03437 11.3749 4 11.3749 5.04875C11.3749 6.89375 11.4999 8.36125 11.5093 8.44188C11.5968 10.6731 11.5718 11.0181 10.9899 12.0387C10.8506 12.2844 10.4662 12.7181 10.0593 13.1769C9.52932 13.775 8.92869 14.4525 8.59932 15.0031C8.36369 15.3975 8.23182 15.7925 8.09244 16.2113C7.87994 16.8494 7.63869 17.5725 6.95807 18.4969C6.17244 19.5638 5.98807 20.3475 6.27057 21.4625C5.96182 21.8656 5.96869 22.3606 5.97369 22.7269C5.98248 22.854 5.97619 22.9818 5.95494 23.1075C5.81182 23.5819 5.17869 23.695 4.57994 23.7437C4.48119 23.7512 4.38619 23.7569 4.29557 23.7619C3.84182 23.7863 3.44994 23.8081 3.22494 24.1556C3.00807 24.4906 3.15494 25.0181 3.35869 25.7481C3.40369 25.9094 3.44994 26.0762 3.49557 26.2519C3.60994 26.6894 3.48557 26.9069 3.32807 27.1794C3.17557 27.4425 3.00244 27.7419 3.00244 28.2763C3.00244 29.1931 4.25244 29.4012 5.69307 29.6475C6.15307 29.725 6.63057 29.8056 7.10744 29.9125C7.83397 30.0784 8.5462 30.3016 9.23744 30.58C9.84494 30.8131 10.3249 30.9975 10.8893 30.9975C11.9006 30.9975 12.6549 30.3869 13.3843 29.7969L13.5187 29.6875C13.8643 29.4069 14.8624 29.4375 15.6649 29.46C15.8812 29.4662 16.0856 29.4725 16.2681 29.4725H16.6568C17.4993 29.4675 18.6531 29.4612 19.2962 29.6287C19.5306 29.6912 19.6837 29.8612 19.8768 30.0781C20.2437 30.4881 20.6999 31 21.9637 31C23.1756 31 23.8106 30.4556 24.5462 29.825C24.9937 29.4419 25.4562 29.045 26.1131 28.7087C26.3581 28.5837 26.5893 28.4669 26.8056 28.3581C28.2206 27.6469 28.9999 27.255 28.9999 26.6194C28.9999 26 28.2349 25.5881 27.7287 25.3156ZM13.1943 5.52375C13.3651 5.53049 13.5302 5.58745 13.6688 5.6875C13.8074 5.78755 13.9135 5.92625 13.9737 6.08625C14.0956 6.43312 14.0868 6.7375 13.9868 6.895C13.9868 6.895 13.9731 6.8325 13.9643 6.805C13.9018 6.58211 13.7582 6.39063 13.5618 6.26813C13.48 6.21526 13.3881 6.17982 13.292 6.16402C13.1959 6.14821 13.0975 6.15238 13.0031 6.17625C12.7368 6.24687 12.4774 6.48875 12.4462 7.35063C12.1237 6.69625 12.3018 6.22563 12.5037 5.91313C12.6481 5.68 12.9706 5.5175 13.1943 5.52375ZM12.1006 28.9613C11.9999 29.9525 10.9499 29.9375 10.6306 29.9119C10.0174 29.8606 9.27682 29.6188 8.55994 29.385C8.27744 29.2931 7.98557 29.1975 7.70182 29.1138C6.87682 28.8706 5.81932 28.6925 4.96932 28.5513C4.76807 28.5169 4.57744 28.485 4.40369 28.4544C4.22994 28.4237 4.11557 28.375 4.07869 28.3106C4.01619 28.2075 4.10244 27.9825 4.19932 27.7225C4.32932 27.375 4.50682 26.8963 4.49994 26.3125C4.49994 26.0681 4.40807 25.7938 4.32244 25.5275C4.22119 25.215 4.11744 24.8919 4.20182 24.7388C4.27869 24.5994 4.62369 24.5831 4.92682 24.5831H5.06807C5.28994 24.5831 5.48182 24.5869 5.61494 24.55C6.02182 24.4369 6.54369 24.1175 6.72807 23.6825C6.78432 23.5469 6.81369 23.2488 6.85307 22.8075C6.87619 22.55 6.89932 22.2844 6.92932 22.1462C6.9367 22.111 6.95257 22.078 6.97554 22.0503C6.99852 22.0225 7.02792 22.0007 7.06119 21.9869C7.16432 21.9388 7.48494 21.8675 8.22557 22.2419C8.92432 22.595 9.65557 23.8569 10.3631 25.0775C10.5856 25.4612 10.7956 25.8238 11.0068 26.1625C11.8843 27.5713 12.1837 28.1375 12.1006 28.9625V28.9613ZM20.1531 26.9888C20.078 27.2236 19.9829 27.4515 19.8687 27.67C19.8649 27.6785 19.858 27.6853 19.8494 27.6888C19.8408 27.6924 19.8311 27.6925 19.8224 27.6891C19.8137 27.6857 19.8067 27.6791 19.8027 27.6707C19.7988 27.6622 19.7982 27.6526 19.8012 27.6437C19.9082 27.2697 19.9527 26.8805 19.9331 26.4919C19.9174 26.1962 19.9081 26.0175 19.7668 25.96C19.6256 25.9025 19.5006 26.0119 19.1762 26.3062C19.1074 26.3687 19.0287 26.44 18.9399 26.5187C18.2649 27.1106 17.2599 27.8113 15.4643 27.9794C14.4118 28.0788 13.7399 27.69 13.5318 27.4706C13.5196 27.4576 13.5049 27.4472 13.4886 27.4399C13.4723 27.4325 13.4548 27.4286 13.4369 27.4281C13.4191 27.4276 13.4013 27.4307 13.3847 27.4371C13.368 27.4436 13.3528 27.4533 13.3399 27.4656C13.3219 27.4842 13.3093 27.5074 13.3037 27.5327C13.298 27.5579 13.2996 27.5843 13.3081 27.6087C13.4406 28.0362 13.3831 28.375 13.2774 28.6206C13.2181 28.7581 13.1618 28.7487 13.1524 28.5994C13.1368 28.3094 13.0899 27.9819 12.9649 27.7125C12.7706 27.2787 12.5274 26.8162 12.4093 26.595V26.5919C12.6118 26.4988 12.9631 26.29 13.1199 25.9119C13.2768 25.5337 13.3999 24.7869 12.5062 23.9281C12.1137 23.55 11.1249 22.8556 10.2524 22.2406C9.57119 21.7625 8.86682 21.2681 8.77432 21.1462C8.49369 20.7781 8.37619 20.565 8.34057 19.9181C8.34494 19.7744 8.34869 19.6312 8.35244 19.4875L8.36932 19.3319C8.37047 19.3232 8.37475 19.3152 8.38136 19.3094C8.38797 19.3036 8.39646 19.3004 8.40525 19.3004C8.41405 19.3004 8.42254 19.3036 8.42915 19.3094C8.43576 19.3152 8.44004 19.3232 8.44119 19.3319C8.46684 19.5373 8.50863 19.7405 8.56619 19.9394C8.63369 20.1725 8.71619 20.4131 8.79244 20.5131C8.99182 20.7769 9.26494 20.975 9.52182 21.0438C9.57369 21.0619 9.62917 21.0672 9.68356 21.0594C9.73795 21.0516 9.78966 21.0308 9.83432 20.9988C10.0174 20.8531 9.99994 20.5238 9.97119 19.9775C9.94182 19.415 9.90182 18.6437 10.0868 17.8181C10.4381 16.2556 10.7687 15.7862 11.1874 15.1931C11.2412 15.1169 11.2968 15.0388 11.3531 14.9563C11.4431 14.8263 11.5406 14.7 11.6449 14.5669C12.1118 13.9663 12.6406 13.2862 12.5149 12.0075C12.4831 11.6831 12.4674 11.4556 12.4612 11.2956C12.4593 11.281 12.4625 11.2662 12.4704 11.2538C12.4784 11.2414 12.4904 11.2322 12.5044 11.2278C12.5185 11.2234 12.5336 11.2241 12.5472 11.2297C12.5608 11.2354 12.5719 11.2457 12.5787 11.2587L12.6093 11.3069L12.6849 11.4319C12.9887 11.9319 13.5374 12.8425 14.2537 12.8425C14.3031 12.8424 14.3525 12.838 14.4012 12.8294C15.8631 12.5838 17.6449 10.9387 17.6618 10.9225C17.8568 10.735 17.8393 10.5388 17.7643 10.4281C17.7206 10.3656 17.6561 10.3205 17.5824 10.3008C17.5086 10.2811 17.4303 10.2881 17.3612 10.3206C17.1556 10.4081 16.9149 10.5175 16.6599 10.6331C15.7962 11.025 14.3474 11.68 14.0193 11.5294C13.8697 11.4467 13.736 11.3382 13.6243 11.2087C13.6175 11.2041 13.6118 11.1981 13.6073 11.1912C13.6028 11.1843 13.5998 11.1766 13.5983 11.1685C13.5968 11.1604 13.5969 11.1521 13.5987 11.144C13.6004 11.136 13.6037 11.1283 13.6084 11.1216C13.6131 11.1148 13.619 11.109 13.6259 11.1045C13.6328 11.1001 13.6406 11.097 13.6487 11.0955C13.6568 11.0941 13.6651 11.0942 13.6731 11.0959C13.6812 11.0976 13.6888 11.1009 13.6956 11.1056C14.0449 11.2488 14.2924 11.1963 14.5831 11.1006L14.6456 11.0794C15.2312 10.8863 15.5331 10.7813 16.5681 10.3244C16.8952 10.171 17.2353 10.0469 17.5843 9.95375C17.8343 9.89125 17.9856 9.85187 18.0662 9.6825C18.1039 9.61295 18.1211 9.53407 18.1155 9.45513C18.11 9.37619 18.082 9.30047 18.0349 9.23687C17.9393 9.12 17.7806 9.07625 17.5974 9.11812C17.3962 9.165 17.3037 9.30563 17.1968 9.39875C17.0468 9.52688 16.8843 9.65875 16.1224 9.93937C14.4349 10.5644 13.9612 10.6025 13.2968 10.1538C12.6818 9.73563 12.3499 9.32688 12.3499 9.15375C12.3499 9.02063 12.6906 8.7975 12.8943 8.66375C12.9774 8.60937 13.0562 8.55813 13.1206 8.51C13.3918 8.30875 13.9331 7.79813 13.9568 7.77688C14.2943 7.43875 15.0762 7.64063 15.5193 7.93813C15.5345 7.9495 15.5519 7.95764 15.5704 7.96205C15.5889 7.96645 15.6081 7.96703 15.6268 7.96375C15.6444 7.96035 15.6612 7.95342 15.6761 7.9434C15.691 7.93338 15.7037 7.92046 15.7135 7.90541C15.7233 7.89036 15.73 7.87349 15.7331 7.85581C15.7363 7.83813 15.7358 7.82 15.7318 7.8025C15.4693 6.71125 15.7237 6.09375 15.9818 5.76813C16.113 5.60404 16.2791 5.47131 16.4681 5.37962C16.6572 5.28792 16.8642 5.23958 17.0743 5.23812C17.8749 5.23812 18.4343 5.86313 18.4343 6.76438C18.4343 7.45188 18.2581 7.81375 18.0918 8.03312C18.0825 8.04522 18.0707 8.0552 18.0572 8.06241C18.0438 8.06962 18.029 8.0739 18.0137 8.07496C17.9985 8.07602 17.9832 8.07385 17.9689 8.06858C17.9545 8.0633 17.9415 8.05506 17.9306 8.04438C17.9129 8.02651 17.9018 8.0032 17.8991 7.97824C17.8964 7.95327 17.9022 7.92812 17.9156 7.90688C18.0539 7.66962 18.1262 7.39964 18.1249 7.125C18.1257 6.98707 18.0989 6.85037 18.0462 6.72292C17.9934 6.59547 17.9157 6.47984 17.8177 6.3828C17.7197 6.28576 17.6033 6.20927 17.4753 6.15781C17.3473 6.10635 17.2104 6.08096 17.0724 6.08313C16.8262 6.08313 16.2299 6.17687 16.0243 7.04812C15.9741 7.2754 15.9669 7.51007 16.0031 7.74L16.0081 7.78438C16.0643 8.24563 16.9643 8.56625 17.7099 8.75375C18.4199 8.93187 18.5224 9.1425 18.2624 9.98063C18.0024 10.8188 18.4568 11.62 18.6187 11.8287C18.8163 12.0713 18.9903 12.3323 19.1381 12.6081C19.3082 12.9376 19.4468 13.2825 19.5518 13.6381C19.6874 14.0625 19.8049 14.4287 20.2162 14.9644C20.9081 15.8644 21.3199 18.0044 21.1537 19.8394C21.1406 19.99 21.1206 20.1075 21.1056 20.1938C21.0787 20.3519 21.0606 20.4563 21.1468 20.53C21.2331 20.6038 21.3443 20.5738 21.6006 20.4906L21.8149 20.4225C22.0734 20.3488 22.3359 20.2903 22.6012 20.2475C22.6223 20.2442 22.6424 20.2359 22.6597 20.2233C22.6769 20.2107 22.691 20.1941 22.7006 20.175C22.9149 19.7431 22.9412 19.2237 22.9506 18.7706C22.9506 18.716 22.9518 18.6579 22.9543 18.5963C22.9662 18.1106 22.9824 17.4131 22.7699 16.5963C22.7646 16.5803 22.7659 16.5628 22.7735 16.5477C22.781 16.5327 22.7943 16.5212 22.8103 16.5159C22.8262 16.5106 22.8437 16.5119 22.8588 16.5195C22.8738 16.527 22.8853 16.5403 22.8906 16.5562C23.1046 17.066 23.2447 17.6037 23.3068 18.1531C23.4662 19.5644 23.1881 20.1587 23.1856 20.1637C23.1791 20.1767 23.1755 20.191 23.1751 20.2054C23.1746 20.2199 23.1773 20.2343 23.183 20.2477C23.1886 20.261 23.1971 20.273 23.2078 20.2828C23.2185 20.2926 23.2311 20.2999 23.2449 20.3044C23.4117 20.3642 23.5609 20.4645 23.6793 20.5963C23.7706 20.7 23.7374 20.7463 23.6081 20.6975C23.3528 20.6022 23.0824 20.5537 22.8099 20.5544C22.1599 20.5544 21.6793 20.8637 21.4656 21.1287C21.2662 21.375 21.2343 21.6081 21.2262 21.8331L21.2224 21.8363C20.7549 21.7894 20.4137 21.9119 20.1306 22.2244L20.1256 22.23C19.7343 22.7144 19.8756 23.7694 20.0449 24.635C20.1249 25.0381 20.3943 26.23 20.1531 26.99V26.9888ZM26.1593 27.6181C25.1774 28.0375 24.5699 28.525 24.0343 28.955C23.6812 29.2381 23.3468 29.5056 22.9543 29.7138C22.3218 30.0475 21.3974 30.1219 20.8749 29.2325C20.7268 28.9825 20.8306 28.6162 20.9737 28.1106C21.1643 27.4387 21.4256 26.5194 21.2056 25.32C21.1468 25 21.0949 24.7256 21.0499 24.4881C20.8749 23.5625 20.8062 23.2144 20.8749 22.9375C20.9143 22.7844 21.0893 22.75 21.2418 22.75C21.2968 22.7505 21.3517 22.7544 21.4062 22.7619C21.4894 23.0454 21.6394 23.3047 21.8437 23.5181C22.1999 23.8844 22.6956 24.07 23.3162 24.0713C23.4474 24.0819 24.9374 24.1681 25.5999 22.6712C25.6912 22.6825 25.8281 22.715 25.8687 22.815C25.9487 23.0144 25.8518 23.3719 25.7737 23.6588C25.7174 23.8656 25.6687 24.0438 25.6718 24.1819C25.6912 25.1819 26.3593 25.6056 27.2862 26.1919C27.3981 26.2625 27.5149 26.3362 27.6331 26.4131C27.7512 26.49 27.8124 26.5625 27.8124 26.625C27.7799 26.9244 26.5624 27.4475 26.1593 27.6194V27.6181Z" fill="black"/>
</svg>
