<svg width="32" height="33" viewBox="0 0 32 33" fill="none" xmlns="http://www.w3.org/2000/svg">
<path d="M15.8211 23.5135C15.8211 23.5135 15.8211 13.1525 16.1651 13.1535C16.4311 13.1535 16.7771 26.5185 16.7771 26.5185C16.3011 26.4625 15.8211 24.3195 15.8211 23.5135ZM22.4891 13.2735C21.5701 9.2575 19.5571 5.8045 16.7811 3.1395L16.7741 3.1335C16.4361 2.6175 16.1271 2.0255 15.8791 1.4015L15.8551 1.3335C15.8561 1.3535 15.8561 1.3775 15.8561 1.4015C15.8561 1.9665 15.6031 2.4715 15.2041 2.8105L15.2011 2.8125C11.6271 5.8465 9.3531 10.3175 9.2781 15.3205V15.3335C9.2771 15.3955 9.2771 15.4685 9.2771 15.5415C9.2771 20.4985 11.6621 24.8985 15.3471 27.6565L15.3861 27.6845L15.4731 27.7475C15.6338 28.9368 15.7711 30.1288 15.8851 31.3235H16.4861C16.6521 29.8325 16.8761 28.5275 17.1691 27.2475L17.1231 27.4865C17.5191 27.2115 17.8651 26.9265 18.1881 26.6175L18.1851 26.6205C20.9861 24.0235 22.7341 20.3235 22.7341 16.2165C22.7341 16.1555 22.7341 16.0955 22.7331 16.0345V16.0435C22.7301 15.0625 22.6411 14.1035 22.4721 13.1725L22.4871 13.2715L22.4891 13.2735Z" fill="black"/>
</svg>
