<svg width="32" height="33" viewBox="0 0 32 33" fill="none" xmlns="http://www.w3.org/2000/svg">
<path d="M30.0259 15.4677C29.9439 15.4617 29.8489 15.4577 29.7529 15.4577C29.2689 15.4577 28.8059 15.5477 28.3799 15.7117L28.4059 15.7027C28.2809 15.7527 28.0809 15.7527 28.0639 15.9117C28.1329 15.9777 28.1429 16.0867 28.2009 16.1787C28.3179 16.3767 28.4619 16.5447 28.6299 16.6847L28.6329 16.6877C28.8079 16.8247 28.9829 16.9577 29.1669 17.0747C29.4919 17.2747 29.8609 17.3937 30.1789 17.5947C30.3599 17.7117 30.5449 17.8607 30.7289 17.9857C30.8199 18.0477 30.8789 18.1607 30.9959 18.2007V18.1757C30.9389 18.1007 30.9209 17.9917 30.8649 17.9087C30.7809 17.8247 30.6979 17.7497 30.6149 17.6677C30.3669 17.3427 30.0799 17.0647 29.7579 16.8327L29.7459 16.8247C29.4789 16.6427 28.8939 16.3877 28.7839 16.0807L28.7679 16.0627C28.9859 16.0317 29.1799 15.9857 29.3669 15.9237L29.3429 15.9307C29.6269 15.8557 29.8869 15.8717 30.1799 15.7987C30.3119 15.7647 30.4459 15.7237 30.5799 15.6817V15.6067C30.4299 15.4567 30.3179 15.2527 30.1629 15.1127C29.7539 14.7527 29.3029 14.4147 28.8279 14.1107L28.7829 14.0837C28.5209 13.9167 28.1879 13.8087 27.9119 13.6667C27.8119 13.6167 27.6449 13.5917 27.5869 13.5077C27.4569 13.3227 27.3419 13.1107 27.2509 12.8867L27.2429 12.8647C26.9976 12.3887 26.7696 11.9044 26.5589 11.4117C26.4149 11.0287 26.2719 10.7147 26.1109 10.4107L26.1339 10.4577C25.3479 9.13868 24.2529 8.07868 22.9459 7.35568L22.9029 7.33368C22.5939 7.18068 22.2349 7.06168 21.8579 6.99468L21.8329 6.99068C21.6239 6.98068 21.4159 6.96568 21.2079 6.95668C21.0619 6.86268 20.9359 6.76668 20.8179 6.66068L20.8209 6.66368C20.3459 6.36368 19.1169 5.71368 18.7669 6.57368C18.5419 7.11568 19.1009 7.65068 19.2939 7.92568C19.4479 8.10868 19.5879 8.31368 19.7089 8.53068L19.7189 8.55068C19.7779 8.69568 19.7939 8.84468 19.8529 8.99568C19.9979 9.44768 20.1449 9.81868 20.3119 10.1777L20.2859 10.1157C20.3849 10.3147 20.4879 10.4837 20.6029 10.6437L20.5949 10.6317C20.6619 10.7227 20.7769 10.7657 20.8039 10.9157C20.7179 11.0967 20.6509 11.3067 20.6139 11.5257L20.6119 11.5397C20.5039 11.8717 20.4409 12.2547 20.4409 12.6517C20.4409 13.2727 20.5939 13.8577 20.8639 14.3717L20.8539 14.3517C20.9879 14.5587 21.3059 15.0187 21.7319 14.8427C22.1069 14.6927 22.0239 14.2177 22.1319 13.7997C22.1569 13.6997 22.1409 13.6337 22.1919 13.5657V13.5847C22.3089 13.8197 22.4269 14.0437 22.5339 14.2787C22.8359 14.7137 23.1949 15.0837 23.6049 15.3887L23.6179 15.3977C23.8179 15.5477 23.9769 15.8077 24.2269 15.8997V15.8747H24.2079C24.1509 15.8127 24.0879 15.7577 24.0189 15.7107L24.0149 15.7087C23.8599 15.5567 23.7159 15.3927 23.5859 15.2197L23.5779 15.2087C23.2519 14.7687 22.9419 14.2707 22.6729 13.7477L22.6439 13.6867C22.5069 13.4247 22.3919 13.1417 22.2819 12.8827C22.2319 12.7827 22.2319 12.6327 22.1479 12.5827C21.9999 12.7487 21.8669 12.9337 21.7559 13.1327L21.7479 13.1487C21.6199 13.5217 21.5359 13.9527 21.5139 14.3997V14.4107C21.4799 14.4197 21.4969 14.4107 21.4799 14.4287C21.2129 14.3637 21.1209 14.0867 21.0209 13.8537C20.8849 13.4877 20.8059 13.0637 20.8059 12.6227C20.8059 12.2667 20.8569 11.9227 20.9529 11.5977L20.9469 11.6237C21.0059 11.4487 21.2559 10.8967 21.1559 10.7287C21.1039 10.5697 20.9389 10.4787 20.8469 10.3497C20.7379 10.1957 20.6379 10.0207 20.5549 9.83568L20.5469 9.81568C20.3469 9.34868 20.2469 8.83068 20.0299 8.36368C19.8989 8.11968 19.7609 7.90968 19.6059 7.71368L19.6129 7.72268C19.4479 7.53168 19.2959 7.31868 19.1639 7.09268L19.1529 7.07268C19.1119 6.98168 19.0529 6.83068 19.1189 6.73068C19.1309 6.67268 19.1769 6.62768 19.2359 6.61868C19.3459 6.52868 19.6559 6.64568 19.7639 6.69568C20.0809 6.81568 20.3539 6.95668 20.6069 7.12268L20.5909 7.11268C20.7079 7.19468 20.8349 7.35368 20.9849 7.39468H21.1599C21.4269 7.45368 21.7289 7.41268 21.9789 7.48568C22.4379 7.64068 22.8349 7.83468 23.2019 8.07268L23.1809 8.05968C24.2849 8.77268 25.1689 9.73668 25.7669 10.8757L25.7869 10.9167C25.8869 11.1087 25.9309 11.2857 26.0219 11.4857C26.1969 11.8977 26.4129 12.3147 26.5909 12.7127C26.7599 13.1407 26.9599 13.5107 27.1979 13.8517L27.1859 13.8337C27.3109 14.0087 27.8129 14.0997 28.0379 14.1907C28.2749 14.2737 28.4649 14.3527 28.6489 14.4417L28.6119 14.4257C28.8989 14.6007 29.1789 14.8007 29.4489 14.9927C29.5859 15.0877 30.0029 15.2967 30.0279 15.4647L30.0259 15.4677ZM18.3019 22.7807C18.3019 22.7957 18.3029 22.8127 18.3029 22.8297C18.3029 23.3877 18.0539 23.8867 17.6599 24.2227L17.6569 24.2247C17.2249 24.5767 16.6679 24.7907 16.0609 24.7907C16.0139 24.7907 15.9669 24.7897 15.9209 24.7867H15.9269C15.1879 24.7767 14.5079 24.5367 13.9509 24.1357L13.9609 24.1427L14.2569 23.5477C14.6859 23.7877 15.1959 23.9367 15.7379 23.9577H15.7439C15.7709 23.9597 15.8019 23.9607 15.8339 23.9607C16.1659 23.9607 16.4749 23.8567 16.7279 23.6797L16.7229 23.6827C16.9519 23.5087 17.0979 23.2367 17.0979 22.9307C17.0979 22.9247 17.0979 22.9197 17.0979 22.9137V22.9147C17.0979 22.5027 16.8109 22.1527 16.2879 21.8587C15.8029 21.5927 14.8349 21.0377 14.8349 21.0377C14.3569 20.7417 14.0439 20.2207 14.0439 19.6267C14.0439 19.6057 14.0439 19.5847 14.0449 19.5637V19.5667C14.0439 19.5477 14.0439 19.5257 14.0439 19.5037C14.0439 18.9887 14.2709 18.5267 14.6299 18.2127L14.6319 18.2107C15.0139 17.8867 15.5129 17.6897 16.0579 17.6897C16.0929 17.6897 16.1269 17.6907 16.1609 17.6917H16.1559C16.1649 17.6917 16.1759 17.6917 16.1869 17.6917C16.8259 17.6917 17.4209 17.8827 17.9169 18.2117L17.9049 18.2047L17.6389 18.7997C17.2479 18.6237 16.7919 18.5177 16.3119 18.5127H16.3099C16.2859 18.5107 16.2589 18.5097 16.2309 18.5097C15.9509 18.5097 15.6929 18.6077 15.4909 18.7717L15.4929 18.7697C15.3039 18.9267 15.1839 19.1617 15.1829 19.4247C15.1829 19.8347 15.4749 20.1867 16.0149 20.4867C16.5059 20.7557 17.4979 21.3237 17.4979 21.3237C17.9859 21.6107 18.3089 22.1327 18.3089 22.7307C18.3089 22.7487 18.3089 22.7677 18.3079 22.7857V22.7827L18.3019 22.7807ZM20.3739 23.3117C20.1009 22.7667 19.9419 22.1247 19.9419 21.4457C19.9419 21.3387 19.9459 21.2327 19.9539 21.1287L19.9529 21.1427C19.9529 19.402 20.4819 18.5314 21.5399 18.5307C21.5659 18.5287 21.5969 18.5277 21.6289 18.5277C22.1039 18.5277 22.5209 18.7757 22.7579 19.1497L22.7609 19.1547C23.0319 19.6967 23.1909 20.3367 23.1909 21.0127C23.1909 21.1167 23.1869 21.2197 23.1799 21.3217L23.1809 21.3077C23.1809 23.0624 22.6519 23.9404 21.5939 23.9417C21.5669 23.9437 21.5359 23.9447 21.5049 23.9447C21.0299 23.9447 20.6119 23.6967 20.3749 23.3227L20.3719 23.3177L20.3739 23.3117ZM24.4879 24.8637L23.2179 24.2387C23.3339 24.1417 23.4379 24.0397 23.5339 23.9297L23.5369 23.9267C24.0499 23.2347 24.3579 22.3637 24.3579 21.4217C24.3579 21.3127 24.3539 21.2047 24.3459 21.0977L24.3469 21.1117C24.3469 18.825 23.4492 17.681 21.6539 17.6797C21.6139 17.6777 21.5669 17.6767 21.5199 17.6767C20.7529 17.6767 20.0639 18.0137 19.5949 18.5487L19.5929 18.5517C19.0819 19.2437 18.7749 20.1137 18.7749 21.0557C18.7749 21.1617 18.7789 21.2667 18.7869 21.3707L18.7859 21.3567C18.7769 21.4577 18.7719 21.5757 18.7719 21.6947C18.7719 22.5687 19.0459 23.3787 19.5119 24.0437L19.5029 24.0307C19.9519 24.5087 20.5889 24.8067 21.2939 24.8067C21.3599 24.8067 21.4249 24.8037 21.4889 24.7987L21.4799 24.7997C21.4889 24.7997 21.5009 24.7997 21.5119 24.7997C21.8229 24.7997 22.1239 24.7547 22.4089 24.6717L22.3869 24.6777L24.0429 25.6427L24.4929 24.8657L24.4879 24.8637ZM28.6359 24.6947H25.3489V17.7847H26.4549V23.8457H28.6359V24.6947ZM13.2349 19.5967C12.9479 21.6807 12.2909 23.5617 11.3299 25.2467L11.3699 25.1697C10.9849 25.9107 10.2569 26.4267 9.40188 26.5097L9.39188 26.5107C9.13288 26.4967 8.89188 26.4347 8.67288 26.3337L8.68488 26.3387V25.7217C8.82188 25.7427 8.97988 25.7547 9.14088 25.7547C9.14988 25.7547 9.15888 25.7547 9.16888 25.7547C9.18488 25.7557 9.20188 25.7557 9.21988 25.7557C9.50888 25.7557 9.77388 25.6507 9.97788 25.4757L9.97588 25.4767C10.1959 25.2957 10.3369 25.0257 10.3449 24.7217C10.2919 24.2837 10.1909 23.8837 10.0459 23.5067L10.0579 23.5407L8.79088 19.5967H9.92788L10.8369 22.5457C10.9989 22.9617 11.0929 23.4437 11.0929 23.9467C11.0929 23.9477 11.0929 23.9487 11.0929 23.9487C11.5749 22.6867 11.9409 21.2147 12.1269 19.6877L12.1359 19.5957L13.2349 19.5967ZM8.21488 24.6947H7.05688C7.02422 22.854 6.91188 21.017 6.71988 19.1837H6.70988L4.94788 24.6947H4.06688L2.31688 19.1837H2.30488C2.16822 21.0177 2.08688 22.8547 2.06088 24.6947H1.00488C1.07355 22.238 1.24422 19.9344 1.51688 17.7837H2.95388L4.62188 22.8627H4.63188L6.31488 17.7837H7.68288C7.98555 20.3017 8.16388 22.6053 8.21788 24.6947H8.21488ZM21.5049 8.20768C21.5029 8.20768 21.4999 8.20768 21.4969 8.20768C21.3779 8.20768 21.2629 8.22268 21.1529 8.25068L21.1629 8.24868V8.26468H21.1799C21.2659 8.39268 21.3539 8.50368 21.4489 8.60768L21.4469 8.60568C21.5139 8.73968 21.5719 8.87268 21.6389 9.00568L21.6559 8.98668C21.7649 8.90068 21.8339 8.76868 21.8339 8.62068C21.8339 8.60268 21.8329 8.58568 21.8309 8.56768V8.56968C21.7809 8.51068 21.7739 8.45268 21.7309 8.39468C21.6809 8.31068 21.5739 8.26968 21.5059 8.20368L21.5049 8.20768Z" fill="black"/>
</svg>
