<svg width="32" height="33" viewBox="0 0 32 33" fill="none" xmlns="http://www.w3.org/2000/svg">
<g clip-path="url(#clip0_35_137)">
<path d="M15.1728 0.532945C15.6398 0.260503 16.2173 0.260503 16.6844 0.532945L29.113 7.78295C29.5738 8.05175 29.8572 8.54511 29.8572 9.07861V23.5786C29.8572 24.1122 29.5738 24.6054 29.113 24.8742L16.6844 32.1242C16.2173 32.3968 15.6398 32.3968 15.1728 32.1242L12.0656 30.3118C11.35 29.8944 11.1083 28.9758 11.5258 28.2602C11.9432 27.5448 12.8617 27.303 13.5772 27.7204L15.9286 29.092L26.8572 22.717V9.94017L15.9286 3.56517L5 9.94017V22.717L7.2336 24.02C7.92196 24.2408 8.77222 24.2948 9.37152 24.03C9.64954 23.9072 9.90062 23.7072 10.0994 23.35C10.3085 22.974 10.5 22.3482 10.5 21.3286V10.8286C10.5 10.0002 11.1716 9.32861 12 9.32861C12.8284 9.32861 13.5 10.0002 13.5 10.8286V21.3286C13.5 22.709 13.2421 23.8718 12.7209 24.8084C12.1894 25.7638 11.4293 26.4006 10.5838 26.7742C8.97124 27.4866 7.19046 27.1946 6.09998 26.8028C6.01372 26.7718 5.9305 26.733 5.85134 26.6868L2.7442 24.8742C2.28336 24.6054 2 24.1122 2 23.5786V9.07861C2 8.54511 2.28336 8.05175 2.7442 7.78295L15.1728 0.532945ZM16.4931 10.8951C17.2868 9.95023 18.5264 9.32861 20.2084 9.32861C21.7694 9.32861 22.9584 9.86373 23.763 10.7149C24.332 11.317 24.3054 12.2663 23.7032 12.8354C23.1012 13.4045 22.1518 13.3777 21.5828 12.7757C21.4076 12.5904 21.0404 12.3286 20.2084 12.3286C19.3236 12.3286 18.959 12.6237 18.7902 12.8247C18.5723 13.0841 18.5 13.4123 18.5 13.5786C18.5 13.7449 18.5723 14.0731 18.7902 14.3326C18.959 14.5336 19.3236 14.8286 20.2084 14.8286C20.3564 14.8286 20.4994 14.8501 20.6346 14.8901C21.8736 15.0686 22.8178 15.6243 23.4652 16.3951C24.2098 17.2815 24.4584 18.3283 24.4584 19.0786C24.4584 19.829 24.2098 20.8758 23.4652 21.7622C22.6716 22.707 21.432 23.3286 19.75 23.3286C18.189 23.3286 16.9999 22.7934 16.1954 21.9424C15.6263 21.3402 15.653 20.3908 16.2551 19.8219C16.8571 19.2528 17.8065 19.2795 18.3756 19.8816C18.5507 20.0669 18.918 20.3286 19.75 20.3286C20.6348 20.3286 20.9994 20.0336 21.1682 19.8326C21.386 19.5731 21.4584 19.2449 21.4584 19.0786C21.4584 18.9123 21.386 18.5841 21.1682 18.3247C20.9994 18.1237 20.6348 17.8286 19.75 17.8286C19.6019 17.8286 19.4589 17.8072 19.3238 17.7672C18.0847 17.5886 17.1406 17.0329 16.4931 16.2622C15.7485 15.3758 15.5 14.329 15.5 13.5786C15.5 12.8283 15.7485 11.7815 16.4931 10.8951Z" fill="black"/>
</g>
<defs>
<clipPath id="clip0_35_137">
<rect width="32" height="32" fill="white" transform="translate(0 0.328613)"/>
</clipPath>
</defs>
</svg>
