<svg width="32" height="32" viewBox="0 0 32 32" fill="none" xmlns="http://www.w3.org/2000/svg">
<path d="M16.0119 21.8972C16.0079 21.8972 16.0029 21.8972 15.9979 21.8972C15.3609 21.8972 14.8449 22.4132 14.8449 23.0512C14.8449 23.6892 15.3609 24.2052 15.9979 24.2052C16.0029 24.2052 16.0079 24.2052 16.0129 24.2052H21.5519C21.5549 24.2052 21.5589 24.2052 21.5629 24.2052C22.1999 24.2052 22.7159 23.6892 22.7159 23.0522C22.7159 22.4152 22.1999 21.8992 21.5629 21.8992C21.5589 21.8992 21.5549 21.8992 21.5519 21.8992L16.0119 21.8972ZM19.5059 16.4002C19.6399 16.2022 19.7199 15.9582 19.7199 15.6962C19.7199 15.3692 19.5959 15.0712 19.3929 14.8462L19.3939 14.8472L12.4039 7.40921C12.1649 7.18221 11.8419 7.04221 11.4859 7.04221C10.7499 7.04221 10.1529 7.63922 10.1529 8.37522C10.1529 8.70122 10.2699 9.00021 10.4639 9.23122L10.4619 9.22922L16.2879 15.4272V15.5642L7.01594 22.2802C6.71694 22.5262 6.52694 22.8972 6.52694 23.3122C6.52694 24.0482 7.12394 24.6452 7.85994 24.6452C8.12794 24.6452 8.37694 24.5662 8.58594 24.4302L8.58094 24.4332L18.8639 17.0482C19.1289 16.8852 19.3459 16.6662 19.5019 16.4072L19.5069 16.3982L19.5059 16.4002ZM29.9719 4.72122C29.9839 4.72022 29.9979 4.72021 30.0129 4.72021C30.5629 4.72021 31.0079 5.16622 31.0079 5.71522C31.0079 5.82222 30.9909 5.92521 30.9599 6.02121L30.9619 6.01421L26.3899 25.9862C26.2029 26.7102 25.5729 27.2422 24.8129 27.2792H24.8089H2.02794C2.01594 27.2802 2.00194 27.2802 1.98694 27.2802C1.43694 27.2802 0.991943 26.8342 0.991943 26.2852C0.991943 26.1782 1.00894 26.0752 1.03994 25.9792L1.03794 25.9862L5.60994 6.01421C5.79694 5.29022 6.42694 4.75822 7.18694 4.72122H7.19094H29.9719Z" fill="black"/>
</svg>
