<svg width="32" height="33" viewBox="0 0 32 33" fill="none" xmlns="http://www.w3.org/2000/svg">
<g clip-path="url(#clip0_35_160)">
<path fill-rule="evenodd" clip-rule="evenodd" d="M20.3904 29.8614C19.6192 29.8614 18.9952 29.2343 18.9952 28.4591C18.9952 27.6839 19.6192 27.0583 20.3904 27.0583C21.1616 27.0583 21.7856 27.6839 21.7856 28.4591C21.7856 29.2343 21.1616 29.8614 20.3904 29.8614ZM16.1152 32.3286C24.24 32.3286 23.7328 28.7872 23.7328 28.7872L23.7232 25.1185H15.9712V24.0169H26.8016C26.8016 24.0169 32 24.6104 32 16.3708C32 8.13115 27.464 8.42158 27.464 8.42158H24.7552V12.2466C24.7552 12.2466 24.9008 16.806 20.2912 16.806H12.6016C12.6016 16.806 8.28159 16.7374 8.28159 21.0044V28.0583C8.28159 28.0583 7.62559 32.3286 16.1152 32.3286ZM11.6112 2.7958C12.3824 2.7958 13.0048 3.42291 13.0048 4.19814C13.0048 4.97338 12.3824 5.59893 11.6112 5.59893C10.84 5.59893 10.216 4.97338 10.216 4.19814C10.216 3.42291 10.84 2.7958 11.6112 2.7958ZM15.8848 0.328613C7.76161 0.328613 8.2688 3.87002 8.2688 3.87002L8.27842 7.53877H16.0304V8.64033H5.19839C5.19839 8.64033 0 8.04679 0 16.2864C0 24.5261 4.5376 24.2356 4.5376 24.2356H7.24482V20.4106C7.24482 20.4106 7.0992 15.8513 11.7104 15.8513H19.3984C19.3984 15.8513 23.7184 15.9198 23.7184 11.6528V4.59893C23.7184 4.59893 24.3744 0.328613 15.8848 0.328613Z" fill="black"/>
</g>
<defs>
<clipPath id="clip0_35_160">
<rect width="32" height="32" fill="white" transform="translate(0 0.328613)"/>
</clipPath>
</defs>
</svg>
