<svg width="32" height="32" viewBox="0 0 32 32" fill="none" xmlns="http://www.w3.org/2000/svg">
<path d="M9.69978 4.92418C9.1979 5.20488 8.66976 5.97897 8.60848 7.66748C8.57936 8.46953 7.8846 9.09686 7.0567 9.06865C6.22878 9.04044 5.58122 8.36741 5.61032 7.56536C5.68546 5.49531 6.3612 3.43562 8.19978 2.40729C10.0436 1.37604 12.2297 1.84434 14.1226 2.82261C14.8535 3.20037 15.1299 4.08061 14.74 4.78867C14.35 5.49675 13.4414 5.76453 12.7105 5.38679C11.1636 4.58734 10.2032 4.64262 9.69978 4.92418ZM17.7428 7.44465C18.3807 6.93265 19.3263 7.01858 19.8548 7.63658C20.9636 8.93302 22.0272 10.4114 22.9926 12.0314C25.0732 15.5222 26.356 19.0987 26.7018 22.0987C26.8744 23.5962 26.8216 25.0212 26.4606 26.2434C26.0968 27.4748 25.3882 28.5895 24.1998 29.254C22.762 30.0583 21.1018 29.9442 19.5823 29.4083C18.0574 28.8704 16.4879 27.8519 14.9917 26.529C14.3799 25.9878 14.3366 25.0687 14.8951 24.476C15.4536 23.8833 16.4024 23.8413 17.0142 24.3824C18.3325 25.548 19.5713 26.3114 20.6086 26.6774C21.6514 27.0451 22.3074 26.9567 22.6998 26.7372C23.0286 26.5534 23.3594 26.1787 23.5764 25.4438C23.7962 24.6998 23.8656 23.681 23.7204 22.4211C23.4304 19.906 22.3182 16.7122 20.3946 13.4845C19.5098 11.9999 18.5416 10.6565 17.5446 9.49069C17.0161 8.87269 17.1048 7.95664 17.7428 7.44465Z" fill="black"/>
<path d="M29 16.227C29 15.6656 28.572 14.8354 27.0932 13.9398C26.3908 13.5143 26.1774 12.6178 26.6166 11.9373C27.0558 11.2568 27.9812 11.0501 28.6836 11.4755C30.4966 12.5736 32 14.1703 32 16.227C32 18.2895 30.4884 19.8893 28.6674 20.9883C27.9642 21.4126 27.039 21.2045 26.601 20.5233C26.163 19.842 26.378 18.9459 27.081 18.5215C28.5692 17.6235 29 16.7901 29 16.227ZM22.7252 21.7144C22.864 22.5057 22.3144 23.2561 21.4976 23.3906C19.7844 23.6725 17.9309 23.8255 16 23.8255C11.8391 23.8255 8.00036 23.1137 5.14572 21.9037C3.72064 21.2998 2.47318 20.543 1.56106 19.6291C0.641954 18.7081 0 17.5563 0 16.227C0 14.6187 0.932164 13.2828 2.17096 12.276C3.41424 11.2656 5.10942 10.4581 7.04026 9.86438C7.82988 9.62159 8.67314 10.0449 8.92378 10.8098C9.1744 11.5747 8.73748 12.3916 7.94788 12.6344C6.24668 13.1575 4.9448 13.8152 4.09908 14.5025C3.24884 15.1935 3 15.788 3 16.227C3 16.5947 3.16952 17.0596 3.7179 17.6091C4.27326 18.1656 5.14928 18.7331 6.34818 19.2412C8.74152 20.2555 12.1528 20.9193 16 20.9193C17.7695 20.9193 19.4546 20.7788 20.9952 20.5252C21.812 20.3909 22.5866 20.9234 22.7252 21.7144Z" fill="black"/>
<path d="M9.74379 26.7373C10.2457 27.018 11.2018 27.074 12.7419 26.2812C13.4734 25.9046 14.3816 26.1739 14.7703 26.8824C15.1591 27.5912 14.8812 28.471 14.1496 28.8476C12.2615 29.8195 10.0824 30.2825 8.24379 29.2541C6.40001 28.223 5.72559 26.1547 5.65369 24.0775C5.62593 23.2754 6.27461 22.6034 7.10257 22.5765C7.93053 22.5496 8.62425 23.1779 8.65201 23.98C8.71077 25.6777 9.24041 26.4558 9.74379 26.7373ZM7.97551 18.7293C7.19883 18.4501 6.80285 17.6138 7.09107 16.8614C7.69567 15.283 8.48543 13.6514 9.45091 12.0314C11.5314 8.54059 14.0872 5.67602 16.5961 3.88602C17.8486 2.9924 19.1488 2.3242 20.422 2.01596C21.7048 1.70536 23.0555 1.7427 24.2437 2.40736C25.6815 3.2115 26.4097 4.6615 26.6903 6.2042C26.9719 7.75247 26.8464 9.57839 26.4116 11.4952C26.2338 12.279 25.4338 12.7749 24.6248 12.6027C23.8156 12.4305 23.3038 11.6555 23.4816 10.8716C23.8644 9.18281 23.9274 7.76175 23.736 6.70855C23.5434 5.64974 23.1361 5.14375 22.7437 4.92425C22.4151 4.74038 21.9148 4.65017 21.1494 4.83549C20.3742 5.02318 19.4288 5.47436 18.3751 6.22611C16.2716 7.72686 13.9726 10.2569 12.049 13.4846C11.1642 14.9691 10.4473 16.4531 9.90365 17.8725C9.61543 18.6249 8.75217 19.0085 7.97551 18.7293Z" fill="black"/>
<path d="M18.9185 15.9568C18.9185 17.4114 17.7012 18.5906 16.1997 18.5906C14.6982 18.5906 13.481 17.4114 13.481 15.9568C13.481 14.5022 14.6982 13.323 16.1997 13.323C17.7012 13.323 18.9185 14.5022 18.9185 15.9568Z" fill="black"/>
</svg>
