<svg width="32" height="33" viewBox="0 0 32 33" fill="none" xmlns="http://www.w3.org/2000/svg">
<g clip-path="url(#clip0_35_130)">
<path d="M0 3.82861C0 1.89562 1.567 0.328613 3.5 0.328613H28.5C30.433 0.328613 32 1.89562 32 3.82861V7.82861C32 8.65703 31.3284 9.32861 30.5 9.32861C29.6716 9.32861 29 8.65703 29 7.82861V3.82861C29 3.55247 28.7762 3.32861 28.5 3.32861H3.5C3.22386 3.32861 3 3.55247 3 3.82861V28.8286C3 29.1048 3.22386 29.3286 3.5 29.3286H30.5C31.3284 29.3286 32 30.0002 32 30.8286C32 31.657 31.3284 32.3286 30.5 32.3286H3.5C1.567 32.3286 0 30.7616 0 28.8286V3.82861ZM9.5 13.3286C9.5 12.5002 10.1716 11.8286 11 11.8286H18.5C19.3284 11.8286 20 12.5002 20 13.3286C20 14.157 19.3284 14.8286 18.5 14.8286H16.5V25.3286C16.5 26.157 15.8284 26.8286 15 26.8286C14.1716 26.8286 13.5 26.157 13.5 25.3286V14.8286H11C10.1716 14.8286 9.5 14.157 9.5 13.3286ZM22.5514 13.4888C23.3888 12.4919 24.7014 11.8286 26.5 11.8286C28.1698 11.8286 29.4296 12.4 30.2788 13.2982C30.8478 13.9003 30.821 14.8497 30.219 15.4187C29.617 15.9878 28.6676 15.961 28.0986 15.359C27.8788 15.1266 27.4408 14.8286 26.5 14.8286C25.4986 14.8286 25.0612 15.1653 24.8486 15.4184C24.5868 15.7299 24.5 16.1206 24.5 16.3286C24.5 16.5366 24.5868 16.9273 24.8486 17.2388C25.0612 17.4919 25.4986 17.8286 26.5 17.8286C26.6514 17.8286 26.7976 17.851 26.9352 17.8928C28.2614 18.0815 29.2638 18.6736 29.9486 19.4888C30.7368 20.4272 31 21.5366 31 22.3286C31 23.1206 30.7368 24.23 29.9486 25.1684C29.1112 26.1654 27.7986 26.8286 26 26.8286C24.3302 26.8286 23.0704 26.2572 22.2212 25.359C21.6522 24.757 21.679 23.8076 22.281 23.2384C22.883 22.6694 23.8324 22.6962 24.4014 23.2982C24.6212 23.5306 25.0592 23.8286 26 23.8286C27.0014 23.8286 27.4388 23.4918 27.6514 23.2388C27.9132 22.9272 28 22.5366 28 22.3286C28 22.1206 27.9132 21.73 27.6514 21.4184C27.4388 21.1654 27.0014 20.8286 26 20.8286C25.8486 20.8286 25.7024 20.8062 25.5648 20.7644C24.2386 20.5756 23.2362 19.9836 22.5514 19.1684C21.7632 18.2299 21.5 17.1206 21.5 16.3286C21.5 15.5366 21.7632 14.4273 22.5514 13.4888Z" fill="black"/>
</g>
<defs>
<clipPath id="clip0_35_130">
<rect width="32" height="32" fill="white" transform="translate(0 0.328613)"/>
</clipPath>
</defs>
</svg>
