<svg width="99" height="98" viewBox="0 0 99 98" fill="none" xmlns="http://www.w3.org/2000/svg">
<g filter="url(#filter0_d_7_368)">
<path d="M59.0462 81.1258L22.4745 68.9703L20.7154 65.3779L23.2177 60.2555L28.5878 59.8529L35.9647 60.1378L19.9318 25.1207L22.8832 19.7785L29.362 20.5032L36.8381 35.7711L48.5135 30.0541L55.2401 27.8739L59.6749 32.383L60.8208 29.0383L67.3181 27.527L75.7387 36.7652L82.4901 58.5119L77.0085 72.3304L59.0462 81.1258Z" fill="white" stroke="black"/>
<path d="M21.8732 18.0463C17.8576 20.0125 16.1685 24.9428 18.1348 28.9583L32.258 57.8014L29.8336 56.9074L28.9616 56.6721C24.7701 55.2362 20.1728 57.4873 18.7368 61.6788C17.3008 65.8702 19.552 70.4676 23.7434 71.9036L23.7808 71.9799L53.4496 81.9536L53.6396 81.9552L53.7906 82.0704C58.2908 82.9295 63.2956 82.5246 68.0169 80.2128L72.2136 78.1579C83.2873 72.7356 87.8386 59.4507 82.4163 48.377L73.0756 29.3009C71.1094 25.2854 66.179 23.5963 62.1635 25.5625C61.1239 26.0716 60.3006 26.8294 59.6002 27.669C57.2438 24.8852 53.1815 23.9062 49.7764 25.5736C47.9069 26.4889 46.5497 28.064 45.827 29.8724C43.9554 29.3344 41.8789 29.4406 40.0094 30.356C39.151 30.7763 38.429 31.3545 37.7919 32.0095L32.7852 21.7847C30.819 17.7691 25.8887 16.08 21.8732 18.0463ZM24.2644 22.9298C25.6188 22.2666 27.2385 22.8215 27.9017 24.1759L41.0535 51.0351L45.937 48.6438L41.1545 38.8769C40.4913 37.5225 41.0462 35.9027 42.4007 35.2395C43.7551 34.5763 45.3748 35.1312 46.038 36.4856L50.8205 46.2526L55.704 43.8614L50.9215 34.0944C50.2583 32.74 50.8132 31.1202 52.1676 30.457C53.522 29.7938 55.1418 30.3488 55.805 31.7032L60.5874 41.4701L65.6998 38.9668L63.3086 34.0833C62.6454 32.7289 63.2003 31.1092 64.5547 30.446C65.9091 29.7828 67.5289 30.3377 68.1921 31.6921L77.5328 50.7682C81.6754 59.2285 78.2827 69.1318 69.8224 73.2744L65.6257 75.3293C62.0489 77.0807 58.3327 77.3158 54.8236 76.6455L25.4958 66.7885C23.8761 66.2336 23.2969 65.0509 23.8518 63.4311C24.4068 61.8114 25.5895 61.2322 27.2092 61.7872L42.8953 67.1611L23.0183 26.5671C22.3551 25.2127 22.91 23.5929 24.2644 22.9298Z" fill="black"/>
</g>
<defs>
<filter id="filter0_d_7_368" x="17.2135" y="13.1251" width="81.5884" height="79.4607" filterUnits="userSpaceOnUse" color-interpolation-filters="sRGB">
<feFlood flood-opacity="0" result="BackgroundImageFix"/>
<feColorMatrix in="SourceAlpha" type="matrix" values="0 0 0 0 0 0 0 0 0 0 0 0 0 0 0 0 0 0 127 0" result="hardAlpha"/>
<feOffset dx="7" dy="3"/>
<feGaussianBlur stdDeviation="3.55"/>
<feComposite in2="hardAlpha" operator="out"/>
<feColorMatrix type="matrix" values="0 0 0 0 0 0 0 0 0 0 0 0 0 0 0 0 0 0 0.76 0"/>
<feBlend mode="normal" in2="BackgroundImageFix" result="effect1_dropShadow_7_368"/>
<feBlend mode="normal" in="SourceGraphic" in2="effect1_dropShadow_7_368" result="shape"/>
</filter>
</defs>
</svg>
